<svg xmlns="http://www.w3.org/2000/svg" xmlns:xlink="http://www.w3.org/1999/xlink" width="1080" zoomAndPan="magnify" viewBox="0 0 810 1012.49997" height="1350" preserveAspectRatio="xMidYMid meet" version="1.0"><defs><g/><clipPath id="b3c8872d2f"><path d="M 0.199219 0 L 809.800781 0 L 809.800781 1012 L 0.199219 1012 Z M 0.199219 0 " clip-rule="nonzero"/></clipPath><clipPath id="7e9fd37ae5"><path d="M 0.925781 3.082031 L 111.082031 3.082031 L 111.082031 84.863281 L 0.925781 84.863281 Z M 0.925781 3.082031 " clip-rule="nonzero"/></clipPath><clipPath id="d032f1047c"><rect x="0" width="376" y="0" height="86"/></clipPath></defs><g clip-path="url(#b3c8872d2f)"><path fill="#ffffff" d="M 0.199219 0 L 809.800781 0 L 809.800781 1012 L 0.199219 1012 Z M 0.199219 0 " fill-opacity="1" fill-rule="nonzero"/><path fill="#ffffff" d="M 0.199219 0 L 809.800781 0 L 809.800781 1012 L 0.199219 1012 Z M 0.199219 0 " fill-opacity="1" fill-rule="nonzero"/></g><g transform="matrix(1, 0, 0, 1, 256, 254)"><g clip-path="url(#d032f1047c)"><g clip-path="url(#7e9fd37ae5)"><path fill="#000000" d="M 26.804688 55.941406 L 0.925781 30.054688 L 9.753906 21.222656 L 35.632812 47.113281 Z M 55.675781 67.15625 L 48.953125 60.429688 L 95.542969 13.824219 L 84.820312 3.089844 L 27.855469 3.089844 L 15.902344 15.050781 L 41.785156 40.945312 L 50.609375 32.105469 L 34.089844 15.554688 L 76.121094 15.554688 L 31.300781 60.414062 L 55.675781 84.820312 L 111.085938 29.386719 L 102.261719 20.558594 Z M 55.675781 67.15625 " fill-opacity="1" fill-rule="nonzero"/></g><g fill="#000000" fill-opacity="1"><g transform="translate(120.588039, 48.092941)"><g><path d="M 26.015625 0 L 2.265625 0 L 2.265625 -6.1875 L 17.609375 -27.140625 L 2.734375 -27.140625 L 2.734375 -32.953125 L 25.53125 -32.953125 L 25.53125 -26.765625 L 10.203125 -5.8125 L 26.015625 -5.8125 Z M 26.015625 0 "/></g></g></g><g fill="#000000" fill-opacity="1"><g transform="translate(148.902577, 48.092941)"><g><path d="M 3.78125 0 L 3.78125 -32.953125 L 24.828125 -32.953125 L 24.828125 -27.140625 L 10.859375 -27.140625 L 10.859375 -19.59375 L 24.359375 -19.59375 L 24.359375 -13.78125 L 10.859375 -13.78125 L 10.859375 -5.8125 L 24.828125 -5.8125 L 24.828125 0 Z M 3.78125 0 "/></g></g></g><g fill="#000000" fill-opacity="1"><g transform="translate(177.217114, 48.092941)"><g><path d="M 4.34375 0 L 4.34375 -32.953125 L 11.46875 -32.953125 L 11.46875 -5.8125 L 25.625 -5.8125 L 25.625 0 Z M 4.34375 0 "/></g></g></g><g fill="#000000" fill-opacity="1"><g transform="translate(205.531651, 48.092941)"><g><path d="M 4.34375 0 L 4.34375 -32.953125 L 11.46875 -32.953125 L 11.46875 -5.8125 L 25.625 -5.8125 L 25.625 0 Z M 4.34375 0 "/></g></g></g><g fill="#cb6ce6" fill-opacity="1"><g transform="translate(233.852977, 48.092941)"><g><path d="M 9.15625 0 L 0.421875 -32.953125 L 8.3125 -32.953125 L 12.171875 -16.1875 L 14.109375 -6.703125 L 14.484375 -6.703125 L 16.46875 -16.1875 L 20.390625 -32.953125 L 27.890625 -32.953125 L 19.171875 0 Z M 9.15625 0 "/></g></g></g><g fill="#cb6ce6" fill-opacity="1"><g transform="translate(262.167514, 48.092941)"><g><path d="M 3.78125 0 L 3.78125 -32.953125 L 24.828125 -32.953125 L 24.828125 -27.140625 L 10.859375 -27.140625 L 10.859375 -19.59375 L 24.359375 -19.59375 L 24.359375 -13.78125 L 10.859375 -13.78125 L 10.859375 -5.8125 L 24.828125 -5.8125 L 24.828125 0 Z M 3.78125 0 "/></g></g></g><g fill="#cb6ce6" fill-opacity="1"><g transform="translate(290.482051, 48.092941)"><g><path d="M 10.578125 0 L 3.59375 0 L 3.59375 -32.953125 L 16.328125 -32.953125 C 17.929688 -32.953125 19.363281 -32.707031 20.625 -32.21875 C 21.882812 -31.726562 22.945312 -31.023438 23.8125 -30.109375 C 24.675781 -29.203125 25.328125 -28.101562 25.765625 -26.8125 C 26.210938 -25.519531 26.4375 -24.070312 26.4375 -22.46875 C 26.4375 -20.132812 25.929688 -18.132812 24.921875 -16.46875 C 23.910156 -14.800781 22.476562 -13.703125 20.625 -13.171875 L 27.09375 0 L 19.359375 0 L 13.828125 -12.21875 L 10.578125 -12.21875 Z M 14.640625 -17.703125 C 16.304688 -17.703125 17.457031 -18.015625 18.09375 -18.640625 C 18.738281 -19.273438 19.0625 -20.316406 19.0625 -21.765625 L 19.0625 -23.171875 C 19.0625 -24.617188 18.738281 -25.65625 18.09375 -26.28125 C 17.457031 -26.914062 16.304688 -27.234375 14.640625 -27.234375 L 10.578125 -27.234375 L 10.578125 -17.703125 Z M 14.640625 -17.703125 "/></g></g></g><g fill="#cb6ce6" fill-opacity="1"><g transform="translate(318.796588, 48.092941)"><g><path d="M 13.640625 0.5625 C 10.867188 0.5625 8.457031 0.109375 6.40625 -0.796875 C 4.363281 -1.710938 2.71875 -2.957031 1.46875 -4.53125 L 5.5625 -9.0625 C 6.757812 -7.738281 8.070312 -6.757812 9.5 -6.125 C 10.9375 -5.5 12.394531 -5.1875 13.875 -5.1875 C 15.570312 -5.1875 16.859375 -5.5625 17.734375 -6.3125 C 18.617188 -7.070312 19.0625 -8.160156 19.0625 -9.578125 C 19.0625 -10.742188 18.722656 -11.625 18.046875 -12.21875 C 17.378906 -12.820312 16.242188 -13.25 14.640625 -13.5 L 11.1875 -14.0625 C 8.226562 -14.570312 6.085938 -15.664062 4.765625 -17.34375 C 3.441406 -19.03125 2.78125 -21.082031 2.78125 -23.5 C 2.78125 -26.6875 3.816406 -29.148438 5.890625 -30.890625 C 7.972656 -32.640625 10.890625 -33.515625 14.640625 -33.515625 C 17.179688 -33.515625 19.394531 -33.117188 21.28125 -32.328125 C 23.175781 -31.546875 24.707031 -30.476562 25.875 -29.125 L 21.859375 -24.640625 C 20.972656 -25.617188 19.929688 -26.378906 18.734375 -26.921875 C 17.546875 -27.472656 16.195312 -27.75 14.6875 -27.75 C 11.5 -27.75 9.90625 -26.445312 9.90625 -23.84375 C 9.90625 -22.707031 10.257812 -21.851562 10.96875 -21.28125 C 11.675781 -20.71875 12.832031 -20.296875 14.4375 -20.015625 L 17.890625 -19.40625 C 20.566406 -18.925781 22.628906 -17.914062 24.078125 -16.375 C 25.523438 -14.832031 26.25 -12.757812 26.25 -10.15625 C 26.25 -8.601562 25.976562 -7.175781 25.4375 -5.875 C 24.90625 -4.570312 24.101562 -3.4375 23.03125 -2.46875 C 21.96875 -1.507812 20.65625 -0.765625 19.09375 -0.234375 C 17.53125 0.296875 15.710938 0.5625 13.640625 0.5625 Z M 13.640625 0.5625 "/></g></g></g><g fill="#cb6ce6" fill-opacity="1"><g transform="translate(347.111125, 48.092941)"><g><path d="M 3.78125 0 L 3.78125 -32.953125 L 24.828125 -32.953125 L 24.828125 -27.140625 L 10.859375 -27.140625 L 10.859375 -19.59375 L 24.359375 -19.59375 L 24.359375 -13.78125 L 10.859375 -13.78125 L 10.859375 -5.8125 L 24.828125 -5.8125 L 24.828125 0 Z M 3.78125 0 "/></g></g></g><g fill="#000000" fill-opacity="1"><g transform="translate(163.853078, 79.356545)"><g><path d="M 2.28125 -13.984375 L 3.75 -13.984375 L 3.75 0 L 2.28125 0 Z M 2.28125 -13.984375 "/></g></g></g><g fill="#000000" fill-opacity="1"><g transform="translate(169.881289, 79.356545)"><g><path d="M 11.5625 -14.8125 L 11.5625 0 L 10.203125 0 L 10.203125 -2.078125 C 9.773438 -1.367188 9.210938 -0.828125 8.515625 -0.453125 C 7.816406 -0.0859375 7.03125 0.09375 6.15625 0.09375 C 5.164062 0.09375 4.269531 -0.128906 3.46875 -0.578125 C 2.675781 -1.035156 2.050781 -1.664062 1.59375 -2.46875 C 1.144531 -3.28125 0.921875 -4.207031 0.921875 -5.25 C 0.921875 -6.289062 1.144531 -7.21875 1.59375 -8.03125 C 2.050781 -8.84375 2.675781 -9.46875 3.46875 -9.90625 C 4.269531 -10.351562 5.164062 -10.578125 6.15625 -10.578125 C 7 -10.578125 7.765625 -10.398438 8.453125 -10.046875 C 9.140625 -9.703125 9.703125 -9.1875 10.140625 -8.5 L 10.140625 -14.8125 Z M 6.265625 -1.15625 C 7.003906 -1.15625 7.664062 -1.320312 8.25 -1.65625 C 8.84375 -2 9.3125 -2.484375 9.65625 -3.109375 C 10 -3.734375 10.171875 -4.445312 10.171875 -5.25 C 10.171875 -6.050781 10 -6.765625 9.65625 -7.390625 C 9.3125 -8.015625 8.84375 -8.492188 8.25 -8.828125 C 7.664062 -9.171875 7.003906 -9.34375 6.265625 -9.34375 C 5.523438 -9.34375 4.859375 -9.171875 4.265625 -8.828125 C 3.671875 -8.492188 3.203125 -8.015625 2.859375 -7.390625 C 2.523438 -6.765625 2.359375 -6.050781 2.359375 -5.25 C 2.359375 -4.445312 2.523438 -3.734375 2.859375 -3.109375 C 3.203125 -2.484375 3.671875 -2 4.265625 -1.65625 C 4.859375 -1.320312 5.523438 -1.15625 6.265625 -1.15625 Z M 6.265625 -1.15625 "/></g></g></g><g fill="#000000" fill-opacity="1"><g transform="translate(183.414821, 79.356545)"><g><path d="M 11.125 -4.8125 L 2.34375 -4.8125 C 2.414062 -3.71875 2.832031 -2.832031 3.59375 -2.15625 C 4.351562 -1.488281 5.3125 -1.15625 6.46875 -1.15625 C 7.125 -1.15625 7.722656 -1.269531 8.265625 -1.5 C 8.804688 -1.738281 9.28125 -2.082031 9.6875 -2.53125 L 10.484375 -1.625 C 10.015625 -1.0625 9.429688 -0.632812 8.734375 -0.34375 C 8.035156 -0.0507812 7.269531 0.09375 6.4375 0.09375 C 5.351562 0.09375 4.394531 -0.132812 3.5625 -0.59375 C 2.726562 -1.050781 2.078125 -1.6875 1.609375 -2.5 C 1.148438 -3.3125 0.921875 -4.226562 0.921875 -5.25 C 0.921875 -6.28125 1.140625 -7.195312 1.578125 -8 C 2.023438 -8.8125 2.640625 -9.441406 3.421875 -9.890625 C 4.203125 -10.347656 5.078125 -10.578125 6.046875 -10.578125 C 7.023438 -10.578125 7.898438 -10.347656 8.671875 -9.890625 C 9.441406 -9.441406 10.046875 -8.816406 10.484375 -8.015625 C 10.921875 -7.210938 11.140625 -6.289062 11.140625 -5.25 Z M 6.046875 -9.359375 C 5.035156 -9.359375 4.1875 -9.035156 3.5 -8.390625 C 2.8125 -7.742188 2.425781 -6.90625 2.34375 -5.875 L 9.78125 -5.875 C 9.6875 -6.90625 9.296875 -7.742188 8.609375 -8.390625 C 7.929688 -9.035156 7.078125 -9.359375 6.046875 -9.359375 Z M 6.046875 -9.359375 "/></g></g></g><g fill="#000000" fill-opacity="1"><g transform="translate(195.171815, 79.356545)"><g><path d="M 5.65625 -10.578125 C 7.019531 -10.578125 8.066406 -10.234375 8.796875 -9.546875 C 9.535156 -8.867188 9.90625 -7.859375 9.90625 -6.515625 L 9.90625 0 L 8.546875 0 L 8.546875 -1.640625 C 8.222656 -1.085938 7.75 -0.660156 7.125 -0.359375 C 6.507812 -0.0546875 5.78125 0.09375 4.9375 0.09375 C 3.757812 0.09375 2.820312 -0.179688 2.125 -0.734375 C 1.4375 -1.296875 1.09375 -2.035156 1.09375 -2.953125 C 1.09375 -3.847656 1.414062 -4.566406 2.0625 -5.109375 C 2.707031 -5.660156 3.738281 -5.9375 5.15625 -5.9375 L 8.484375 -5.9375 L 8.484375 -6.5625 C 8.484375 -7.46875 8.226562 -8.15625 7.71875 -8.625 C 7.21875 -9.101562 6.484375 -9.34375 5.515625 -9.34375 C 4.847656 -9.34375 4.207031 -9.234375 3.59375 -9.015625 C 2.976562 -8.796875 2.453125 -8.492188 2.015625 -8.109375 L 1.375 -9.171875 C 1.90625 -9.617188 2.539062 -9.960938 3.28125 -10.203125 C 4.03125 -10.453125 4.820312 -10.578125 5.65625 -10.578125 Z M 5.15625 -1.015625 C 5.945312 -1.015625 6.628906 -1.195312 7.203125 -1.5625 C 7.773438 -1.925781 8.203125 -2.457031 8.484375 -3.15625 L 8.484375 -4.875 L 5.1875 -4.875 C 3.394531 -4.875 2.5 -4.25 2.5 -3 C 2.5 -2.382812 2.726562 -1.898438 3.1875 -1.546875 C 3.65625 -1.191406 4.3125 -1.015625 5.15625 -1.015625 Z M 5.15625 -1.015625 "/></g></g></g><g fill="#000000" fill-opacity="1"><g transform="translate(206.948784, 79.356545)"><g/></g></g><g fill="#000000" fill-opacity="1"><g transform="translate(212.178555, 79.356545)"><g><path d="M 7.515625 -0.640625 C 7.242188 -0.398438 6.910156 -0.21875 6.515625 -0.09375 C 6.128906 0.03125 5.722656 0.09375 5.296875 0.09375 C 4.304688 0.09375 3.546875 -0.171875 3.015625 -0.703125 C 2.484375 -1.234375 2.21875 -1.984375 2.21875 -2.953125 L 2.21875 -9.3125 L 0.34375 -9.3125 L 0.34375 -10.5 L 2.21875 -10.5 L 2.21875 -12.796875 L 3.640625 -12.796875 L 3.640625 -10.5 L 6.828125 -10.5 L 6.828125 -9.3125 L 3.640625 -9.3125 L 3.640625 -3.03125 C 3.640625 -2.40625 3.796875 -1.929688 4.109375 -1.609375 C 4.421875 -1.285156 4.867188 -1.125 5.453125 -1.125 C 5.742188 -1.125 6.023438 -1.164062 6.296875 -1.25 C 6.566406 -1.34375 6.804688 -1.476562 7.015625 -1.65625 Z M 7.515625 -0.640625 "/></g></g></g><g fill="#000000" fill-opacity="1"><g transform="translate(219.903431, 79.356545)"><g><path d="M 6.265625 0.09375 C 5.253906 0.09375 4.34375 -0.132812 3.53125 -0.59375 C 2.71875 -1.050781 2.078125 -1.6875 1.609375 -2.5 C 1.148438 -3.3125 0.921875 -4.226562 0.921875 -5.25 C 0.921875 -6.28125 1.148438 -7.195312 1.609375 -8 C 2.078125 -8.8125 2.71875 -9.441406 3.53125 -9.890625 C 4.34375 -10.347656 5.253906 -10.578125 6.265625 -10.578125 C 7.273438 -10.578125 8.1875 -10.347656 9 -9.890625 C 9.8125 -9.441406 10.445312 -8.8125 10.90625 -8 C 11.375 -7.195312 11.609375 -6.28125 11.609375 -5.25 C 11.609375 -4.226562 11.375 -3.3125 10.90625 -2.5 C 10.445312 -1.6875 9.8125 -1.050781 9 -0.59375 C 8.1875 -0.132812 7.273438 0.09375 6.265625 0.09375 Z M 6.265625 -1.15625 C 7.015625 -1.15625 7.6875 -1.320312 8.28125 -1.65625 C 8.875 -2 9.335938 -2.484375 9.671875 -3.109375 C 10.003906 -3.734375 10.171875 -4.445312 10.171875 -5.25 C 10.171875 -6.050781 10.003906 -6.765625 9.671875 -7.390625 C 9.335938 -8.015625 8.875 -8.492188 8.28125 -8.828125 C 7.6875 -9.171875 7.015625 -9.34375 6.265625 -9.34375 C 5.523438 -9.34375 4.859375 -9.171875 4.265625 -8.828125 C 3.671875 -8.492188 3.203125 -8.015625 2.859375 -7.390625 C 2.523438 -6.765625 2.359375 -6.050781 2.359375 -5.25 C 2.359375 -4.445312 2.523438 -3.734375 2.859375 -3.109375 C 3.203125 -2.484375 3.671875 -2 4.265625 -1.65625 C 4.859375 -1.320312 5.523438 -1.15625 6.265625 -1.15625 Z M 6.265625 -1.15625 "/></g></g></g><g fill="#000000" fill-opacity="1"><g transform="translate(232.418957, 79.356545)"><g/></g></g><g fill="#000000" fill-opacity="1"><g transform="translate(237.648729, 79.356545)"><g><path d="M 12.15625 -1.28125 L 12.15625 0 L 2.28125 0 L 2.28125 -13.984375 L 11.859375 -13.984375 L 11.859375 -12.703125 L 3.75 -12.703125 L 3.75 -7.734375 L 10.984375 -7.734375 L 10.984375 -6.46875 L 3.75 -6.46875 L 3.75 -1.28125 Z M 12.15625 -1.28125 "/></g></g></g><g fill="#000000" fill-opacity="1"><g transform="translate(251.002612, 79.356545)"><g><path d="M 15.078125 -10.578125 C 16.390625 -10.578125 17.421875 -10.195312 18.171875 -9.4375 C 18.929688 -8.6875 19.3125 -7.570312 19.3125 -6.09375 L 19.3125 0 L 17.890625 0 L 17.890625 -5.953125 C 17.890625 -7.046875 17.625 -7.878906 17.09375 -8.453125 C 16.570312 -9.023438 15.832031 -9.3125 14.875 -9.3125 C 13.78125 -9.3125 12.921875 -8.972656 12.296875 -8.296875 C 11.671875 -7.617188 11.359375 -6.691406 11.359375 -5.515625 L 11.359375 0 L 9.9375 0 L 9.9375 -5.953125 C 9.9375 -7.046875 9.671875 -7.878906 9.140625 -8.453125 C 8.617188 -9.023438 7.875 -9.3125 6.90625 -9.3125 C 5.832031 -9.3125 4.976562 -8.972656 4.34375 -8.296875 C 3.707031 -7.617188 3.390625 -6.691406 3.390625 -5.515625 L 3.390625 0 L 1.984375 0 L 1.984375 -10.5 L 3.328125 -10.5 L 3.328125 -8.59375 C 3.703125 -9.226562 4.222656 -9.71875 4.890625 -10.0625 C 5.554688 -10.40625 6.320312 -10.578125 7.1875 -10.578125 C 8.0625 -10.578125 8.820312 -10.390625 9.46875 -10.015625 C 10.113281 -9.648438 10.597656 -9.097656 10.921875 -8.359375 C 11.304688 -9.054688 11.859375 -9.597656 12.578125 -9.984375 C 13.304688 -10.378906 14.140625 -10.578125 15.078125 -10.578125 Z M 15.078125 -10.578125 "/></g></g></g><g fill="#000000" fill-opacity="1"><g transform="translate(272.181194, 79.356545)"><g><path d="M 7.390625 -10.578125 C 8.367188 -10.578125 9.257812 -10.351562 10.0625 -9.90625 C 10.863281 -9.46875 11.488281 -8.84375 11.9375 -8.03125 C 12.394531 -7.21875 12.625 -6.289062 12.625 -5.25 C 12.625 -4.195312 12.394531 -3.265625 11.9375 -2.453125 C 11.488281 -1.640625 10.867188 -1.007812 10.078125 -0.5625 C 9.285156 -0.125 8.390625 0.09375 7.390625 0.09375 C 6.535156 0.09375 5.765625 -0.078125 5.078125 -0.421875 C 4.390625 -0.773438 3.828125 -1.296875 3.390625 -1.984375 L 3.390625 3.875 L 1.984375 3.875 L 1.984375 -10.5 L 3.328125 -10.5 L 3.328125 -8.421875 C 3.753906 -9.117188 4.316406 -9.648438 5.015625 -10.015625 C 5.722656 -10.390625 6.515625 -10.578125 7.390625 -10.578125 Z M 7.28125 -1.15625 C 8.019531 -1.15625 8.6875 -1.320312 9.28125 -1.65625 C 9.882812 -2 10.351562 -2.484375 10.6875 -3.109375 C 11.03125 -3.734375 11.203125 -4.445312 11.203125 -5.25 C 11.203125 -6.050781 11.03125 -6.757812 10.6875 -7.375 C 10.351562 -8 9.882812 -8.484375 9.28125 -8.828125 C 8.6875 -9.171875 8.019531 -9.34375 7.28125 -9.34375 C 6.539062 -9.34375 5.875 -9.171875 5.28125 -8.828125 C 4.6875 -8.484375 4.21875 -8 3.875 -7.375 C 3.539062 -6.757812 3.375 -6.050781 3.375 -5.25 C 3.375 -4.445312 3.539062 -3.734375 3.875 -3.109375 C 4.21875 -2.484375 4.6875 -2 5.28125 -1.65625 C 5.875 -1.320312 6.539062 -1.15625 7.28125 -1.15625 Z M 7.28125 -1.15625 "/></g></g></g><g fill="#000000" fill-opacity="1"><g transform="translate(285.714725, 79.356545)"><g><path d="M 1.984375 -10.5 L 3.390625 -10.5 L 3.390625 0 L 1.984375 0 Z M 2.703125 -12.796875 C 2.398438 -12.796875 2.148438 -12.894531 1.953125 -13.09375 C 1.753906 -13.300781 1.65625 -13.539062 1.65625 -13.8125 C 1.65625 -14.082031 1.753906 -14.316406 1.953125 -14.515625 C 2.148438 -14.710938 2.398438 -14.8125 2.703125 -14.8125 C 2.992188 -14.8125 3.238281 -14.710938 3.4375 -14.515625 C 3.632812 -14.328125 3.734375 -14.101562 3.734375 -13.84375 C 3.734375 -13.550781 3.632812 -13.300781 3.4375 -13.09375 C 3.238281 -12.894531 2.992188 -12.796875 2.703125 -12.796875 Z M 2.703125 -12.796875 "/></g></g></g><g fill="#000000" fill-opacity="1"><g transform="translate(291.08422, 79.356545)"><g><path d="M 3.328125 -8.453125 C 3.660156 -9.148438 4.15625 -9.675781 4.8125 -10.03125 C 5.476562 -10.394531 6.296875 -10.578125 7.265625 -10.578125 L 7.265625 -9.203125 L 6.921875 -9.21875 C 5.816406 -9.21875 4.953125 -8.878906 4.328125 -8.203125 C 3.703125 -7.523438 3.390625 -6.578125 3.390625 -5.359375 L 3.390625 0 L 1.984375 0 L 1.984375 -10.5 L 3.328125 -10.5 Z M 3.328125 -8.453125 "/></g></g></g><g fill="#000000" fill-opacity="1"><g transform="translate(298.829062, 79.356545)"><g><path d="M 11.125 -4.8125 L 2.34375 -4.8125 C 2.414062 -3.71875 2.832031 -2.832031 3.59375 -2.15625 C 4.351562 -1.488281 5.3125 -1.15625 6.46875 -1.15625 C 7.125 -1.15625 7.722656 -1.269531 8.265625 -1.5 C 8.804688 -1.738281 9.28125 -2.082031 9.6875 -2.53125 L 10.484375 -1.625 C 10.015625 -1.0625 9.429688 -0.632812 8.734375 -0.34375 C 8.035156 -0.0507812 7.269531 0.09375 6.4375 0.09375 C 5.351562 0.09375 4.394531 -0.132812 3.5625 -0.59375 C 2.726562 -1.050781 2.078125 -1.6875 1.609375 -2.5 C 1.148438 -3.3125 0.921875 -4.226562 0.921875 -5.25 C 0.921875 -6.28125 1.140625 -7.195312 1.578125 -8 C 2.023438 -8.8125 2.640625 -9.441406 3.421875 -9.890625 C 4.203125 -10.347656 5.078125 -10.578125 6.046875 -10.578125 C 7.023438 -10.578125 7.898438 -10.347656 8.671875 -9.890625 C 9.441406 -9.441406 10.046875 -8.816406 10.484375 -8.015625 C 10.921875 -7.210938 11.140625 -6.289062 11.140625 -5.25 Z M 6.046875 -9.359375 C 5.035156 -9.359375 4.1875 -9.035156 3.5 -8.390625 C 2.8125 -7.742188 2.425781 -6.90625 2.34375 -5.875 L 9.78125 -5.875 C 9.6875 -6.90625 9.296875 -7.742188 8.609375 -8.390625 C 7.929688 -9.035156 7.078125 -9.359375 6.046875 -9.359375 Z M 6.046875 -9.359375 "/></g></g></g></g></g></svg>