<svg xmlns="http://www.w3.org/2000/svg" xmlns:xlink="http://www.w3.org/1999/xlink" width="1080" zoomAndPan="magnify" viewBox="0 0 810 1012.49997" height="1350" preserveAspectRatio="xMidYMid meet" version="1.0"><defs><clipPath id="9bbff6e9cf"><path d="M 0.199219 0 L 809.800781 0 L 809.800781 1012 L 0.199219 1012 Z M 0.199219 0 " clip-rule="nonzero"/></clipPath><clipPath id="78b1830f6c"><path d="M 271.003906 303.199219 L 578.351562 303.199219 L 578.351562 531 L 271.003906 531 Z M 271.003906 303.199219 " clip-rule="nonzero"/></clipPath></defs><g clip-path="url(#9bbff6e9cf)"><path fill="#ffffff" d="M 0.199219 0 L 809.800781 0 L 809.800781 1012 L 0.199219 1012 Z M 0.199219 0 " fill-opacity="1" fill-rule="nonzero"/><path fill="#ffffff" d="M 0.199219 0 L 809.800781 0 L 809.800781 1012 L 0.199219 1012 Z M 0.199219 0 " fill-opacity="1" fill-rule="nonzero"/></g><g clip-path="url(#78b1830f6c)"><path fill="#000000" d="M 343.210938 450.53125 L 271.003906 378.421875 L 295.628906 353.832031 L 367.839844 425.941406 Z M 423.757812 481.765625 L 405.011719 463.035156 L 534.992188 333.222656 L 505.078125 303.320312 L 346.144531 303.320312 L 312.792969 336.636719 L 385.003906 408.761719 L 409.628906 384.140625 L 363.53125 338.035156 L 480.8125 338.035156 L 355.75 462.992188 L 423.757812 530.964844 L 578.363281 376.570312 L 553.738281 351.976562 Z M 423.757812 481.765625 " fill-opacity="1" fill-rule="nonzero"/></g></svg>